<svg width="24" height="24" viewBox="0 0 24 24" fill="none" xmlns="http://www.w3.org/2000/svg">
<g clip-path="url(#clip0_2777_46171)">
<path fill-rule="evenodd" clip-rule="evenodd" d="M0.0648853 13.7376C0.455087 16.4264 1.741 18.8857 3.76511 20.7673C6.11971 22.9552 9.18882 24.1003 12.4093 23.9917C15.1695 23.8985 17.7352 22.907 19.8303 21.1258C21.8637 19.3968 23.2773 17.0174 23.8137 14.4259C23.8724 14.1432 23.6891 13.8667 23.4049 13.8093C23.1208 13.7509 22.8438 13.9333 22.7851 14.216C21.7576 19.1848 17.4767 22.7759 12.3732 22.948C6.70656 23.1395 1.88102 19.0147 1.09959 13.5522L1.8141 14.1166C2.04163 14.2959 2.37109 14.258 2.55229 14.0316C2.73247 13.8052 2.69437 13.4775 2.46684 13.2982L0.795871 11.9789C0.794841 11.9779 0.793812 11.9779 0.792782 11.9769C0.784545 11.9707 0.776309 11.9656 0.769102 11.9595C0.762925 11.9554 0.757777 11.9513 0.7516 11.9472C0.742334 11.941 0.732038 11.9359 0.722772 11.9308C0.717624 11.9277 0.712476 11.9246 0.707329 11.9226C0.696004 11.9175 0.685708 11.9124 0.674383 11.9072C0.670265 11.9052 0.666147 11.9031 0.660999 11.9011C0.649674 11.897 0.638348 11.8929 0.627023 11.8898C0.621876 11.8888 0.617757 11.8867 0.61261 11.8847C0.602314 11.8816 0.592018 11.8796 0.581723 11.8775C0.575545 11.8765 0.568339 11.8745 0.562161 11.8734C0.553925 11.8724 0.545688 11.8714 0.536422 11.8704C0.527156 11.8693 0.51892 11.8673 0.509654 11.8673C0.502447 11.8663 0.49524 11.8663 0.488033 11.8663C0.477738 11.8663 0.467442 11.8652 0.457146 11.8652C0.456117 11.8652 0.454058 11.8652 0.453028 11.8652C0.445821 11.8652 0.439644 11.8663 0.433467 11.8673C0.42626 11.8683 0.418023 11.8683 0.410816 11.8693C0.408757 11.8693 0.407728 11.8704 0.405669 11.8704C0.395373 11.8714 0.386107 11.8734 0.376841 11.8755C0.369634 11.8765 0.362427 11.8775 0.35522 11.8796C0.344925 11.8816 0.334629 11.8847 0.324334 11.8878C0.318156 11.8898 0.311979 11.8908 0.305802 11.8929C0.295506 11.896 0.28521 11.9001 0.274915 11.9042C0.268738 11.9062 0.26359 11.9083 0.258442 11.9113C0.248146 11.9154 0.23888 11.9205 0.229614 11.9257C0.224467 11.9287 0.218289 11.9308 0.213142 11.9349C0.203875 11.94 0.195639 11.9451 0.187403 11.9513C0.181225 11.9554 0.175048 11.9584 0.1699 11.9625C0.162693 11.9677 0.154457 11.9738 0.14725 11.98C0.141073 11.9851 0.134895 11.9892 0.129747 11.9943C0.126659 11.9933 -0.111169 12.1377 0.0648853 13.7376Z" fill="#30B9EB"/>
<path fill-rule="evenodd" clip-rule="evenodd" d="M23.9351 10.2612C23.5449 7.57243 22.259 5.11313 20.2349 3.23152C17.8803 1.04364 14.8112 -0.101505 11.5907 0.00706922C8.83051 0.100279 6.26382 1.09179 4.16867 2.87302C2.13633 4.60201 0.721718 6.98142 0.185319 9.57286C0.126634 9.85556 0.309895 10.1321 0.594053 10.1895C0.878211 10.2479 1.15516 10.0655 1.21385 9.78284C2.24134 4.81404 6.52327 1.22392 11.6258 1.05081C17.2924 0.859274 22.118 4.98407 22.8994 10.4466L22.1849 9.88219C21.9574 9.70294 21.6279 9.74084 21.4467 9.96721C21.2665 10.1936 21.3046 10.5213 21.5322 10.7006L23.2031 12.0188C23.2042 12.0199 23.2052 12.0199 23.2062 12.0209C23.2144 12.027 23.2227 12.0322 23.2309 12.0383C23.2371 12.0424 23.2422 12.0465 23.2484 12.0506C23.2577 12.0567 23.268 12.0619 23.2772 12.067C23.2824 12.0701 23.2875 12.0731 23.2927 12.0752C23.304 12.0803 23.3143 12.0854 23.3256 12.0906C23.3298 12.0926 23.3339 12.0946 23.339 12.0967C23.3503 12.1008 23.3617 12.1049 23.373 12.108C23.3781 12.109 23.3823 12.111 23.3874 12.1131C23.3977 12.1162 23.408 12.1182 23.4183 12.1203C23.4245 12.1213 23.4317 12.1233 23.4379 12.1244C23.4461 12.1254 23.4543 12.1264 23.4636 12.1274C23.4729 12.1284 23.4811 12.1305 23.4904 12.1305C23.4976 12.1315 23.5048 12.1315 23.512 12.1315C23.5223 12.1315 23.5326 12.1325 23.5429 12.1325C23.5439 12.1325 23.546 12.1325 23.547 12.1325C23.5542 12.1325 23.5604 12.1315 23.5666 12.1305C23.5738 12.1295 23.582 12.1295 23.5892 12.1284C23.5913 12.1284 23.5923 12.1274 23.5944 12.1274C23.6046 12.1264 23.6139 12.1244 23.6232 12.1223C23.6304 12.1213 23.6376 12.1203 23.6448 12.1182C23.6551 12.1162 23.6654 12.1131 23.6757 12.11C23.6819 12.108 23.688 12.1069 23.6942 12.1049C23.7045 12.1018 23.7148 12.0977 23.7251 12.0936C23.7313 12.0916 23.7364 12.0895 23.7416 12.0865C23.7519 12.0824 23.7611 12.0772 23.7704 12.0721C23.7756 12.069 23.7817 12.067 23.7869 12.0629C23.7961 12.0578 23.8044 12.0527 23.8126 12.0465C23.8188 12.0424 23.825 12.0393 23.8301 12.0352C23.8373 12.0301 23.8456 12.024 23.8528 12.0178C23.8589 12.0127 23.8651 12.0086 23.8703 12.0035C23.8723 12.0055 24.1112 11.8611 23.9351 10.2612Z" fill="#30B9EB"/>
</g>
<defs>
<clipPath id="clip0_2777_46171">
<rect width="24" height="24" fill="white"/>
</clipPath>
</defs>
</svg>
