<svg width="18" height="18" viewBox="0 0 18 18" fill="none" xmlns="http://www.w3.org/2000/svg">
<g clip-path="url(#clip0_4703_56591)">
<path d="M13.1815 5.80664C13.0525 5.80664 12.9265 5.82789 12.8051 5.87038L5.71498 8.37287C5.62847 8.40322 5.53135 8.39108 5.45699 8.341L4.40531 7.63988C4.2581 7.54123 4.06082 7.56096 3.93486 7.68692L3.49172 8.13005C3.36121 8.26057 3.34604 8.46999 3.45682 8.6172L4.7847 10.3882C4.87727 10.5111 5.03814 10.5658 5.18231 10.5233L8.50884 9.59907L7.82441 11.8238C7.78192 11.9574 7.81986 12.1016 7.92002 12.2002C7.98983 12.2685 8.0824 12.3064 8.18104 12.3064C8.22201 12.3064 8.26147 12.3004 8.29941 12.2867L9.62729 11.8436C9.71379 11.8147 9.78664 11.754 9.83368 11.6751L11.5334 8.70066L13.5381 8.03293C14.007 7.87662 14.3105 7.44563 14.3105 6.9342C14.3105 6.31199 13.8037 5.80664 13.1815 5.80664Z" fill="white"/>
<path d="M8.99924 0C4.03676 0 0 4.03676 0 8.99924C0 13.9617 4.03676 17.9985 8.99924 17.9985C13.9617 17.9985 17.9985 13.9617 17.9985 8.99924C18 4.03676 13.9617 0 8.99924 0ZM16.6342 8.99924C16.6342 13.209 13.209 16.6327 9.00076 16.6327C4.79251 16.6327 1.36582 13.209 1.36582 8.99924C1.36582 4.79099 4.79099 1.36582 8.99924 1.36582C13.2075 1.36582 16.6342 4.79099 16.6342 8.99924Z" fill="white"/>
</g>
<defs>
<clipPath id="clip0_4703_56591">
<rect width="18" height="18" fill="white"/>
</clipPath>
</defs>
</svg>
